<?xml version="1.0" encoding="utf-8"?>
<!-- Generator: Adobe Illustrator 16.0.4, SVG Export Plug-In . SVG Version: 6.00 Build 0)  -->
<!DOCTYPE svg PUBLIC "-//W3C//DTD SVG 1.1//EN" "http://www.w3.org/Graphics/SVG/1.1/DTD/svg11.dtd">
<svg version="1.1" id="レイヤー_1" xmlns="http://www.w3.org/2000/svg" xmlns:xlink="http://www.w3.org/1999/xlink" x="0px"
	 y="0px" width="108px" height="64.814px" viewBox="0 0 108 64.814" enable-background="new 0 0 108 64.814" xml:space="preserve">
<path fill="#040000" d="M94.294,0C86.499,13.274,72.878,19.277,54,19.277C35.12,19.277,21.499,13.274,13.704,0
	C5.923,4.862,0,13.426,0,23.858c0,10.663,6.487,19.925,14.946,24.589c8.043,4.499,21.019,7.13,39.053,7.13
	c18.035,0,31.01-2.631,39.053-7.13C101.513,43.783,108,34.521,108,23.858C108,13.426,102.076,4.862,94.294,0"/>
<path fill="#040000" d="M27.003,46.867l12.343-33.877c0.394-1.231-0.223-2.015-1.213-2.015c-1.231,0-1.86,0.588-2.298,1.794
	L23.414,46.867c-0.839,2.301-3.183,4.432-4.022,6.73l-3.269,8.973c-0.451,1.24,0.188,2.244,1.426,2.244h2.244
	c1.616,0,2.429-0.56,3.059-2.244l3.039-8.336C26.687,52.045,25.969,49.896,27.003,46.867"/>
<path fill="#040000" d="M43.156,46.867l12.343-33.877c0.393-1.231-0.225-2.015-1.215-2.015c-1.228,0-1.86,0.588-2.295,1.794
	L39.567,46.867c-0.838,2.301-3.184,4.432-4.022,6.73l-3.27,8.973c-0.451,1.24,0.187,2.244,1.427,2.244h2.244
	c1.615,0,2.429-0.56,3.059-2.244l3.038-8.336C42.84,52.045,42.122,49.896,43.156,46.867"/>
<path fill="#040000" d="M59.309,46.867L71.65,12.989c0.393-1.231-0.226-2.015-1.216-2.015c-1.227,0-1.857,0.588-2.294,1.794
	L55.718,46.867c-0.837,2.301-3.185,4.432-4.022,6.73l-3.269,8.973c-0.45,1.24,0.189,2.244,1.427,2.244h2.243
	c1.617,0,2.428-0.56,3.061-2.244l3.038-8.336C58.99,52.045,58.272,49.896,59.309,46.867"/>
</svg>
