<?xml version="1.0" encoding="utf-8"?>
<!-- Generator: Adobe Illustrator 19.2.1, SVG Export Plug-In . SVG Version: 6.00 Build 0)  -->
<svg version="1.1" xmlns="http://www.w3.org/2000/svg" xmlns:xlink="http://www.w3.org/1999/xlink" x="0px"
	 y="0px" viewBox="0 0 200 62.4" enable-background="new 0 0 200 62.4" xml:space="preserve">
<g>
	<g>
		<path d="M34.9,42.6c0.9,0.8,0.6,1.5-0.6,1.5h-8c-1.2,0-2.9-0.7-3.8-1.5L15.4,36c-0.9-0.8-1.9-0.6-2.3,0.6l-2,5.4
			c-0.4,1.1-1.7,2-2.9,2h-6c-1.2,0-1.8-0.9-1.4-2l7.9-21.6c0.4-1.1,1.7-2,2.9-2h6c1.2,0,1.8,0.9,1.4,2l-1.6,4.5
			c-0.4,1.1,0.1,1.6,1.2,1l12.6-6.6c1.1-0.6,2.9-1,4.1-1h7.2c1.2,0,1.3,0.5,0.3,1L24,29.6c-1,0.6-1.2,1.7-0.3,2.5L34.9,42.6z"/>
	</g>
	<g>
		<path d="M73.6,42c-0.4,1.1-1.7,2-2.9,2h-6c-1.2,0-1.8-0.9-1.4-2l0.6-1.7c0.4-1.1-0.2-2-1.4-2H49.9
			c-1.2,0-2.5,0.9-2.9,2L46.3,42c-0.4,1.1-1.7,2-2.9,2h-3.9c-1.2,0-1.8-0.9-1.4-2L46,20.4c0.4-1.1,1.7-2,2.9-2H80
			c1.2,0,1.8,0.9,1.4,2L73.6,42z M64.9,31.7c1.2,0,2.5-0.9,2.9-2l0.9-2.5c0.4-1.1-0.2-2-1.4-2H54.6c-1.2,0-2.5,0.9-2.9,2l-0.9,2.5
			c-0.4,1.1,0.2,2,1.4,2H64.9z"/>
	</g>
	<g>
		<path d="M119,18.3c1.2,0,1.4,0.6,0.5,1.4l-16.2,13.8c-0.9,0.8-2,2.3-2.4,3.4l-1.8,5c-0.4,1.1-1.7,2-2.9,2h-6
			c-1.2,0-1.8-0.9-1.4-2l2.4-6.6c0.4-1.1,0.3-2.9-0.3-4l-5.9-11.2c-0.6-1.1,0-1.9,1.2-1.9h6.5c1.2,0,2.6,0.9,3.2,1.9l3,5.4
			c0.6,1,1.8,1.3,2.7,0.5l7.9-6.4c0.9-0.8,2.7-1.4,3.9-1.4H119z"/>
	</g>
	<g>
		<path d="M150.7,42c-0.4,1.1-1.7,2-2.9,2h-6c-1.2,0-1.8-0.9-1.4-2l0.6-1.7c0.4-1.1-0.2-2-1.4-2H127
			c-1.2,0-2.5,0.9-2.9,2l-0.6,1.7c-0.4,1.1-1.7,2-2.9,2h-3.9c-1.2,0-1.8-0.9-1.4-2l7.9-21.6c0.4-1.1,1.7-2,2.9-2h31.2
			c1.2,0,1.8,0.9,1.4,2L150.7,42z M142,31.7c1.2,0,2.5-0.9,2.9-2l0.9-2.5c0.4-1.1-0.2-2-1.4-2h-12.6c-1.2,0-2.5,0.9-2.9,2l-0.9,2.5
			c-0.4,1.1,0.2,2,1.4,2H142z"/>
	</g>
	<g>
		<path d="M191.3,42c-0.4,1.1-1.7,2-2.9,2h-31.2c-1.2,0-1.8-0.9-1.4-2l7.9-21.6c0.4-1.1,1.7-2,2.9-2h31.2
			c1.2,0,1.8,0.9,1.4,2l-1,2.7c-0.4,1.1-1.7,2-2.9,2h-20.6c-1.2,0-2.5,0.9-2.9,2l-2.9,8c-0.4,1.1,0.2,2,1.4,2h20.6
			c1.2,0,1.8,0.9,1.4,2L191.3,42z"/>
	</g>
</g>
</svg>
