<svg xmlns="http://www.w3.org/2000/svg" viewBox="0 0 200.00293 62.386">
  <path d="M98.169,25.073a1.81543,1.81543,0,0,1-1.582,1.104H55.568a0.77139,0.77139,0,0,1-.775-1.105L62.564,3.716a1.811,1.811,0,0,1,1.58-1.107h7.833a4.773,4.773,0,0,0,2.169-.63l2.12-1.348A4.80664,4.80664,0,0,1,78.436,0H84.16c0.648,0,.731.288,0.186,0.637L82.275,1.972c-0.545.352-.462,0.637,0.186,0.637h22.752a0.76965,0.76965,0,0,1,.771,1.105ZM92.481,11.535a1.80975,1.80975,0,0,0,1.581-1.105L94.5,9.232a0.76916,0.76916,0,0,0-.771-1.105H71.41a1.80951,1.80951,0,0,0-1.58,1.105l-0.436,1.195a0.77189,0.77189,0,0,0,.774,1.107H92.481v0.001Zm-3.273,9.006a1.80839,1.80839,0,0,0,1.579-1.107l0.406-1.117a0.77278,0.77278,0,0,0-.775-1.107H68.103a1.80748,1.80748,0,0,0-1.578,1.107l-0.407,1.117a0.77258,0.77258,0,0,0,.775,1.107H89.208Z" />
  <path d="M150.405,25.112a0.67915,0.67915,0,0,1-.663,1.058H117.159a0.71852,0.71852,0,0,1-.711-1.08l1.256-2.916a5.275,5.275,0,0,1,1.404-1.79l5.234-3.961c0.517-.39.409-0.71-0.238-0.71h-3.639a0.77277,0.77277,0,0,1-.777-1.106l1.023-2.834a1.80737,1.80737,0,0,1,1.578-1.104h7.701a1.80885,1.80885,0,0,0,1.581-1.107l0.186-.51a0.77062,0.77062,0,0,0-.773-1.105h-7.989a0.7712,0.7712,0,0,1-.773-1.106l1.031-2.834a1.80716,1.80716,0,0,1,1.578-1.106h7.979a1.80155,1.80155,0,0,0,1.575-1.107l0.233-.652A1.80413,1.80413,0,0,1,136.194.035h7.272a0.77413,0.77413,0,0,1,.777,1.107l-0.234.652a0.77442,0.77442,0,0,0,.777,1.107h8.563a0.772,0.772,0,0,1,.774,1.106l-1.024,2.834a1.807,1.807,0,0,1-1.578,1.106h-8.563a1.8112,1.8112,0,0,0-1.58,1.105l-0.185.51a0.7719,0.7719,0,0,0,.773,1.107h8.833a0.7707,0.7707,0,0,1,.774,1.104l-1.027,2.834a1.80648,1.80648,0,0,1-1.578,1.106H136.713a4.1007,4.1007,0,0,0-2.115.71l-5.232,3.959c-0.515.391-.408,0.71,0.239,0.71h8.638a0.7171,0.7171,0,0,0,.71-1.079l-0.465-1.076a0.71826,0.71826,0,0,1,.71-1.081h6.506a2.06018,2.06018,0,0,1,1.69,1.059Z" />
  <path d="M115.979,17.269c0.649,0,.875.435,0.507,0.966l-5.179,7.443a2.53474,2.53474,0,0,1-1.85.966h-5.225a0.56461,0.56461,0,0,1-.511-0.97l5.094-7.434a2.50853,2.50853,0,0,1,1.843-.971h5.321Z" />
  <path d="M113.17,2.133a1.81235,1.81235,0,0,0-1.582,1.105l-1.047,2.863a0.76785,0.76785,0,0,0,.771,1.102l7.679-.019a1.82213,1.82213,0,0,0,1.582-1.109l1.039-2.837a0.76965,0.76965,0,0,0-.772-1.105h-7.67Z" />
  <path d="M110.835,8.608a1.81235,1.81235,0,0,0-1.582,1.105l-1.046,2.863a0.76737,0.76737,0,0,0,.771,1.102l7.679-.02a1.8168,1.8168,0,0,0,1.581-1.108l1.038-2.837a0.76916,0.76916,0,0,0-.771-1.105h-7.67Z" />
  <path d="M190.055,26.17a2.566,2.566,0,0,1-1.858-.96L180.08,13.77a0.9416,0.9416,0,0,0-1.498-.113L167.328,25.324a3.18425,3.18425,0,0,1-1.993.846H154.858c-0.647,0-.81-0.382-0.363-0.85L177.889,0.884a3.15628,3.15628,0,0,1,1.989-.849h10.717c0.646,0,.803.375,0.343,0.832l-7.917,7.912c-0.457.457-.302,0.832,0.345,0.832h3.546a2.66224,2.66224,0,0,1,1.882.939l11.014,14.678c0.388,0.519.178,0.942-.471,0.942h-9.282Z" />
  <path d="M57.135,3.364a1.80836,1.80836,0,0,1-1.578,1.105H39.839a4.87747,4.87747,0,0,0-2.176.618L35.178,6.621c-0.55.338-.471,0.618,0.175,0.618H54.552a0.7705,0.7705,0,0,1,.773,1.104l-6.09,16.729a1.80619,1.80619,0,0,1-1.578,1.104H6.45a0.76915,0.76915,0,0,1-.772-1.104L11.771,8.343a1.804,1.804,0,0,1,1.578-1.104H25.211a4.9284,4.9284,0,0,0,2.178-.618l2.486-1.534c0.55-.341.471-0.618-0.176-0.618H14.348a0.7712,0.7712,0,0,1-.773-1.105l0.822-2.26A1.80764,1.80764,0,0,1,15.974,0H57.186a0.7707,0.7707,0,0,1,.774,1.104Zm-23.01,9.305a1.55972,1.55972,0,0,0,1.422-.68c0.136-.372-0.282-0.677-0.929-0.677H30.129a1.57272,1.57272,0,0,0-1.425.677c-0.138.375,0.279,0.68,0.925,0.68h4.496Zm-1.77,4.868a1.56514,1.56514,0,0,0,1.429-.704c0.14-.387-0.275-0.705-0.921-0.705H28.372a1.57533,1.57533,0,0,0-1.433.705c-0.141.387,0.273,0.704,0.919,0.704h4.497Zm-1.771,4.859a1.567,1.567,0,0,0,1.43-.7c0.14-.385-0.275-0.701-0.921-0.701H26.597a1.56473,1.56473,0,0,0-1.428.701c-0.141.386,0.275,0.7,0.921,0.7h4.494Zm8.568,0a1.80408,1.80408,0,0,0,1.577-1.105l3.229-8.874a0.771,0.771,0,0,0-.775-1.105H42.884a1.80472,1.80472,0,0,0-1.579,1.105l-3.228,8.874a0.77148,0.77148,0,0,0,.774,1.105h0.301Zm-20.944,0a1.80407,1.80407,0,0,0,1.577-1.105l3.227-8.874a0.7705,0.7705,0,0,0-.774-1.105H21.925a1.80213,1.80213,0,0,0-1.578,1.105l-3.228,8.874a0.772,0.772,0,0,0,.775,1.105h0.314Z" />
  <path d="M116.433,47.602a1.41013,1.41013,0,0,1,1.435-1.718h2.776a2.17523,2.17523,0,0,1,2.055,1.718l0.813,4.518a1.4088,1.4088,0,0,1-1.433,1.717h-2.773a2.16857,2.16857,0,0,1-2.054-1.717Z" />
  <path d="M137.759,46.586a0.80123,0.80123,0,0,1,.771,1.282l-7.034,13.233a2.66234,2.66234,0,0,1-2.135,1.285h-6.88a0.80261,0.80261,0,0,1-.77-1.285l7.036-13.233a2.66168,2.66168,0,0,1,2.135-1.282h6.877Z" />
  <path d="M108.52,47.602a1.41108,1.41108,0,0,1,1.436-1.718h2.726a2.17212,2.17212,0,0,1,2.053,1.718l0.813,4.518a1.409,1.409,0,0,1-1.434,1.717h-2.725a2.1703,2.1703,0,0,1-2.053-1.717Z" />
  <path d="M18.523,36.187a0.9489,0.9489,0,0,0-.95-1.365H11.711a2.24615,2.24615,0,0,0-1.956,1.365l-0.46,1.249a2.24682,2.24682,0,0,1-1.957,1.362H3.648a2.22349,2.22349,0,0,0-1.946,1.366l-1.621,4.5a0.9559,0.9559,0,0,0,.96,1.367H4.765a0.954,0.954,0,0,1,.957,1.367L0.766,61.014a0.95259,0.95259,0,0,0,.955,1.365H7.582a2.23507,2.23507,0,0,0,1.95-1.365L14.49,47.399a2.23368,2.23368,0,0,1,1.95-1.367H31.925a0.9491,0.9491,0,0,1,.951,1.365L27.87,61.014a0.94967,0.94967,0,0,0,.951,1.365h9.154a2.23389,2.23389,0,0,0,1.95-1.365l7.582-20.852a0.95218,0.95218,0,0,0-.957-1.364H19.011a0.94617,0.94617,0,0,1-.949-1.362Z" />
  <path d="M159.532,45.364a2.65894,2.65894,0,0,1,2.132-1.282h16.497a0.7979,0.7979,0,0,1,.767,1.279l-8.401,15.737a0.799,0.799,0,0,0,.768,1.28h9.607a2.66536,2.66536,0,0,0,2.134-1.282L195.28,38.095a0.8,0.8,0,0,0-.77-1.28H155.556a2.658,2.658,0,0,0-2.132,1.282l-7.48,14.102a0.80136,0.80136,0,0,0,.771,1.281h7.063a2.66009,2.66009,0,0,0,2.131-1.281Z" />
  <path d="M73.696,38.798a2.17266,2.17266,0,0,1-1.921-1.375L71.359,36.2a2.17367,2.17367,0,0,0-1.922-1.379H60.505a0.98046,0.98046,0,0,0-.986,1.379l0.415,1.223a0.9782,0.9782,0,0,1-.986,1.375H55.259a0.96161,0.96161,0,0,0-.967,1.369l1.599,4.496a2.21018,2.21018,0,0,0,1.94,1.368H61.52a2.24258,2.24258,0,0,1,1.956,1.365l5.021,13.619a2.2442,2.2442,0,0,0,1.956,1.362h8.934a0.94742,0.94742,0,0,0,.951-1.362L75.317,47.396a0.9491,0.9491,0,0,1,.951-1.365H88.772a0.8023,0.8023,0,0,1,.771,1.284l-3.187,5.997a0.80214,0.80214,0,0,0,.771,1.283h6.842a2.66837,2.66837,0,0,0,2.136-1.283l7.03-13.224a0.80361,0.80361,0,0,0-.771-1.285Z" />
</svg>
